<?xml version="1.0" encoding="UTF-8" standalone="no"?>
<!DOCTYPE svg PUBLIC "-//W3C//DTD SVG 1.1//EN" "http://www.w3.org/Graphics/SVG/1.1/DTD/svg11.dtd">
<svg width="100%" height="100%" viewBox="0 0 1024 1024" version="1.1" xmlns="http://www.w3.org/2000/svg" xmlns:xlink="http://www.w3.org/1999/xlink" xml:space="preserve" xmlns:serif="http://www.serif.com/" style="fill-rule:evenodd;clip-rule:evenodd;stroke-linejoin:round;stroke-miterlimit:2;">
    <g transform="matrix(1,0,0,1,-1152,0)">
        <g id="Icon-Monochrome" transform="matrix(1,0,0,1,1152,0)">
            <rect x="0" y="0" width="1024" height="1024" style="fill:none;"/>
            <g id="Stash" transform="matrix(1.636445,0,0,1.636445,-666.192377,-280.906146)">
                <path d="M463.136,671.589C461.106,650.549 462.28,650.622 462.27,629.5C462.222,525.945 459.113,520.687 480.572,507.621C489.26,502.331 489.995,503.056 652.499,503.072C949.249,503.1 949.96,502.253 958.275,506.912C981.307,519.818 977.888,530.459 977.835,610.499C977.802,660.113 983.153,688.033 951.58,697.802C947.683,699.008 947.721,699.122 563.498,699.082C492.988,699.075 473.694,704.086 463.136,671.589Z"/>
            </g>
            <g id="Terminal" transform="matrix(1.636445,0,0,1.636445,-666.451921,-662.731161)">
                <path d="M463.136,671.589C461.106,650.549 462.28,650.622 462.27,629.5C462.222,525.945 459.113,520.687 480.572,507.621C489.26,502.331 489.995,503.056 652.499,503.072C949.249,503.1 949.96,502.253 958.275,506.912C981.307,519.818 977.888,530.459 977.835,610.499C977.802,660.113 983.153,688.033 951.58,697.802C947.683,699.008 947.721,699.122 563.498,699.082C492.988,699.075 473.694,704.086 463.136,671.589ZM615.52,631.829C613.41,631.829 611.7,633.539 611.7,635.648L611.7,643.7C611.7,645.81 613.41,647.519 615.52,647.519L675.641,647.519C677.75,647.519 679.46,645.81 679.46,643.7L679.46,635.648C679.46,633.539 677.75,631.829 675.641,631.829L615.52,631.829ZM574.175,596.999L542.527,626.479C541.779,627.175 541.342,628.142 541.312,629.163C541.283,630.184 541.663,631.174 542.369,631.912L548.139,637.951C549.589,639.469 551.993,639.532 553.52,638.092L590.962,602.797C591.727,602.076 592.161,601.07 592.161,600.018L592.161,593.979C592.161,592.927 591.727,591.922 590.962,591.2L553.52,555.906C551.993,554.466 549.589,554.529 548.139,556.046L542.369,562.085C541.663,562.824 541.283,563.814 541.312,564.835C541.342,565.856 541.779,566.822 542.527,567.518L574.175,596.999Z"/>
            </g>
        </g>
    </g>
</svg>
