<?xml version="1.0" encoding="UTF-8" standalone="no"?>
<!DOCTYPE svg PUBLIC "-//W3C//DTD SVG 1.1//EN" "http://www.w3.org/Graphics/SVG/1.1/DTD/svg11.dtd">
<svg width="100%" height="100%" viewBox="0 0 1024 1024" version="1.1" xmlns="http://www.w3.org/2000/svg" xmlns:xlink="http://www.w3.org/1999/xlink" xml:space="preserve" xmlns:serif="http://www.serif.com/" style="fill-rule:evenodd;clip-rule:evenodd;stroke-linejoin:round;stroke-miterlimit:2;">
    <g transform="matrix(1,0,0,1,-950,0)">
        <g id="Icon" transform="matrix(1,0,0,1,950,0)">
            <rect x="0" y="0" width="1024" height="1024" style="fill:none;"/>
            <g id="Stash" transform="matrix(1,0,0,1,0,-18.572817)">
                <g transform="matrix(1.636445,0,0,1.636445,-666.451921,-644.158344)">
                    <path d="M462.468,883.503L463.856,884.5L464.114,885.5C476.623,914.183 490.595,909.741 573.498,909.727C947.99,909.664 948.414,910.355 955.378,907.209C959.261,905.455 963.977,905.972 977.666,884.511C977.738,889.055 983.297,919.236 957.296,932.079C948.252,936.547 947.55,935.131 527.5,935.275C476.924,935.292 461.677,935.003 462.468,883.503Z" style="fill:rgb(98,108,114);"/>
                </g>
                <g transform="matrix(1.636445,0,0,1.636445,-666.451921,-644.158344)">
                    <path d="M462.468,883.503C462.383,874.463 461.719,803.48 462.259,770.5C462.556,752.355 478.103,737.449 494.511,736.72C499.242,736.51 858.822,736.706 890.501,736.724C935.359,736.748 965.03,731.65 975.309,758.579C978.903,767.993 978.688,768.26 977.666,884.511C963.977,905.972 959.261,905.455 955.378,907.209C948.414,910.355 947.99,909.664 573.498,909.727C490.595,909.741 476.623,914.183 464.114,885.5L463.856,884.5L462.468,883.503Z" style="fill:rgb(44,55,61);"/>
                </g>
            </g>
            <g id="Terminal" transform="matrix(1,0,0,1,0,-18.572817)">
                <g transform="matrix(1.636445,0,0,1.636445,-666.451921,-644.158344)">
                    <path d="M463.136,671.589C461.106,650.549 462.28,650.622 462.27,629.5C462.222,525.945 459.113,520.687 480.572,507.621C489.26,502.331 489.995,503.056 652.499,503.072C949.249,503.1 949.96,502.253 958.275,506.912C981.307,519.818 977.888,530.459 977.835,610.499C977.802,660.113 983.153,688.033 951.58,697.802C947.683,699.008 947.721,699.122 563.498,699.082C492.988,699.075 473.694,704.086 463.136,671.589Z" style="fill:rgb(45,55,61);"/>
                </g>
                <g transform="matrix(3.373208,0,0,3.373208,-910.95151,-2311.67869)">
                    <path d="M351.032,783.965L335.679,769.663C335.316,769.325 335.104,768.856 335.09,768.361C335.075,767.866 335.26,767.385 335.602,767.027L338.402,764.097C339.105,763.361 340.271,763.331 341.012,764.029L359.176,781.152C359.548,781.502 359.758,781.989 359.758,782.5L359.758,785.429C359.758,785.94 359.548,786.428 359.176,786.778L341.012,803.9C340.271,804.599 339.105,804.568 338.402,803.832L335.602,800.902C335.26,800.544 335.075,800.064 335.09,799.568C335.104,799.073 335.316,798.604 335.679,798.266L351.032,783.965Z" style="fill:rgb(217,217,217);"/>
                    <g transform="matrix(1,0,0,1,4.851302,0)">
                        <path d="M366.239,800.862L395.405,800.862C396.429,800.862 397.258,801.691 397.258,802.715L397.258,806.621C397.258,807.644 396.429,808.474 395.405,808.474L366.239,808.474C365.215,808.474 364.386,807.644 364.386,806.621L364.386,802.715C364.386,801.691 365.215,800.862 366.239,800.862Z" style="fill:rgb(217,217,217);"/>
                    </g>
                </g>
            </g>
        </g>
    </g>
</svg>
