<?xml version="1.0" encoding="UTF-8" standalone="no"?>
<!DOCTYPE svg PUBLIC "-//W3C//DTD SVG 1.1//EN" "http://www.w3.org/Graphics/SVG/1.1/DTD/svg11.dtd">
<svg width="100%" height="100%" viewBox="0 0 500 150" version="1.1" xmlns="http://www.w3.org/2000/svg" xmlns:xlink="http://www.w3.org/1999/xlink" xml:space="preserve" xmlns:serif="http://www.serif.com/" style="fill-rule:evenodd;clip-rule:evenodd;stroke-linejoin:round;stroke-miterlimit:2;">
    <g transform="matrix(1,0,0,1,0,-1586)">
        <g id="Typo" transform="matrix(0.763148,0,0,0.833531,-2190.233356,691.771435)">
            <rect x="2870" y="1072.82" width="655.181" height="179.957" style="fill:none;"/>
            <g id="Stashpad" transform="matrix(1.310363,0,0,1.199716,2706.18184,-1118.14614)">
                <path id="d" d="M593.24,1937.126L602.129,1937.126L602.129,1859.349L593.24,1859.349L593.24,1886.904C589.462,1883.46 584.462,1881.571 578.795,1881.571C565.017,1881.571 555.462,1892.793 555.462,1909.349C555.462,1925.904 565.017,1937.126 578.795,1937.126C584.684,1937.126 589.351,1935.793 593.24,1932.126L593.24,1937.126ZM578.795,1928.238C571.017,1928.238 564.351,1920.46 564.351,1909.349C564.351,1898.238 571.017,1890.46 578.795,1890.46C586.573,1890.46 593.24,1898.238 593.24,1909.349C593.24,1920.46 586.573,1928.238 578.795,1928.238Z" style="fill:white;fill-rule:nonzero;"/>
                <path id="a" d="M535.017,1937.126L543.906,1937.126L543.906,1898.682C543.906,1889.904 537.795,1881.571 522.684,1881.571C515.795,1881.571 507.24,1883.349 500.684,1888.682L505.684,1896.238C519.017,1887.238 535.017,1890.46 535.017,1899.571L535.017,1906.682C535.017,1906.682 531.24,1902.682 520.573,1902.682C508.684,1902.682 497.24,1907.682 497.24,1920.46C497.24,1933.238 508.684,1938.238 520.573,1938.238C531.24,1938.238 535.017,1933.015 535.017,1933.015L535.017,1937.126ZM520.573,1929.349C511.795,1929.349 506.129,1926.793 506.129,1920.46C506.129,1914.238 511.795,1911.571 520.573,1911.571C529.351,1911.571 535.017,1914.238 535.017,1920.46C535.017,1926.793 529.351,1929.349 520.573,1929.349Z" style="fill:white;fill-rule:nonzero;"/>
                <path id="p" d="M447.906,1957.126L447.906,1932.126C451.795,1935.793 456.462,1937.126 462.351,1937.126C476.129,1937.126 485.684,1925.904 485.684,1909.349C485.684,1892.793 476.129,1881.571 462.351,1881.571C456.684,1881.571 451.684,1883.46 447.906,1886.904L447.906,1881.571L439.017,1881.571L439.017,1957.126L447.906,1957.126ZM462.351,1928.238C454.573,1928.238 447.906,1920.46 447.906,1909.349C447.906,1898.238 454.573,1890.46 462.351,1890.46C470.129,1890.46 476.795,1898.238 476.795,1909.349C476.795,1920.46 470.129,1928.238 462.351,1928.238Z" style="fill:white;fill-rule:nonzero;"/>
                <path id="h" d="M380.795,1910.238L380.795,1859.349L389.684,1859.349L389.684,1891.571C389.684,1891.571 395.24,1881.571 406.351,1881.571C421.906,1881.571 427.462,1893.238 427.462,1909.349L427.462,1910.238L418.573,1910.238L418.573,1909.349C418.573,1893.238 412.462,1890.46 406.351,1890.46C400.446,1890.46 390.393,1897.72 389.72,1910.238L380.795,1910.238ZM427.462,1916.238L427.462,1922.238L418.573,1922.238L418.573,1916.238L427.462,1916.238ZM427.462,1928.238L427.462,1937.126L418.573,1937.126L418.573,1928.238L427.462,1928.238ZM389.684,1928.238L389.684,1937.126L380.795,1937.126L380.795,1928.238L389.684,1928.238ZM380.795,1922.238L380.795,1916.238L389.684,1916.238L389.684,1922.238L380.795,1922.238Z" style="fill:white;"/>
                <path id="s" d="M360.351,1921.031C360.351,1909.35 322.573,1918.253 322.573,1898.781C322.573,1888.003 334.795,1881.559 345.906,1881.559C354.795,1881.559 363.684,1885.337 369.24,1891.559L362.906,1896.781C352.573,1884.337 331.462,1889.892 331.462,1897.67C331.462,1909.35 369.24,1900.448 369.24,1919.92C369.24,1931.142 357.017,1937.142 345.906,1937.142C337.017,1937.142 328.129,1933.253 322.573,1927.142L328.906,1921.92C339.24,1934.364 360.351,1928.809 360.351,1921.031Z" style="fill:white;fill-rule:nonzero;"/>
                <path id="a1" serif:id="a" d="M302.129,1937.126L311.017,1937.126L311.017,1898.682C311.017,1889.904 304.906,1881.571 289.795,1881.571C282.906,1881.571 274.351,1883.349 267.795,1888.682L272.795,1896.238C286.129,1887.238 302.129,1890.46 302.129,1899.571L302.129,1906.682C302.129,1906.682 298.351,1902.682 287.684,1902.682C275.795,1902.682 264.351,1907.682 264.351,1920.46C264.351,1933.238 275.795,1938.238 287.684,1938.238C298.351,1938.238 302.129,1933.015 302.129,1933.015L302.129,1937.126ZM287.684,1929.349C278.906,1929.349 273.24,1926.793 273.24,1920.46C273.24,1914.238 278.906,1911.571 287.684,1911.571C296.462,1911.571 302.129,1914.238 302.129,1920.46C302.129,1926.793 296.462,1929.349 287.684,1929.349Z" style="fill:white;fill-rule:nonzero;"/>
                <path id="t" d="M230.573,1881.571L230.573,1859.349L221.684,1859.349L221.684,1881.571L206.129,1881.571L206.129,1890.46L221.684,1890.46L221.684,1909.349C221.684,1934.682 236.017,1937.126 248.017,1937.126L252.795,1928.571C242.795,1928.682 230.573,1927.904 230.573,1909.349L230.573,1890.46L250.573,1890.46L250.573,1881.571L230.573,1881.571Z" style="fill:white;fill-rule:nonzero;"/>
                <path id="S" d="M185.684,1915.46C185.684,1908.238 183.462,1902.682 171.24,1902.682C159.017,1902.682 147.906,1897.126 147.906,1881.015C147.906,1864.904 164.017,1859.349 171.24,1859.349C175.684,1859.349 184.017,1859.349 194.573,1869.349L188.24,1875.682C180.684,1868.793 174.017,1868.238 171.24,1868.238C165.129,1868.238 156.795,1873.238 156.795,1881.015C156.795,1888.238 159.017,1893.793 171.24,1893.793C183.462,1893.793 194.573,1899.349 194.573,1915.46C194.573,1931.349 179.573,1937.126 171.24,1937.126C166.795,1937.126 158.462,1937.126 147.906,1927.126L154.24,1920.793C161.795,1927.682 168.462,1928.238 171.24,1928.238C178.129,1928.238 185.684,1923.238 185.684,1915.46Z" style="fill:white;fill-rule:nonzero;"/>
            </g>
        </g>
    </g>
</svg>
